<svg width="108" height="126" viewBox="0 0 108 126" fill="none" xmlns="http://www.w3.org/2000/svg">
<g clip-path="url(#clip0_6_273)">
<path fill-rule="evenodd" clip-rule="evenodd" d="M53.9949 0C83.6699 0 107.722 11.2383 107.722 25.0811C107.722 38.9341 83.6597 50.1621 53.9949 50.1621C24.3301 50.1621 0.26725 38.9238 0.26725 25.0811C0.26725 11.2383 24.3301 0 53.9949 0ZM0.26725 83.9077V103.165C9.82659 137.033 104.269 130.491 107.733 101.432V82.1953C103.015 114.095 7.82221 116.392 0.26725 83.9077ZM0 33.7764V52.582C9.55934 85.6611 104.526 81.1904 108 52.8179V34.0225C103.272 65.1841 7.55496 65.502 0 33.7764ZM0 58.0781V77.335C9.55934 111.204 104.526 106.63 108 77.5708V58.3345C103.272 90.2344 7.55496 90.5625 0 58.0781Z" fill="white"/>
</g>
<defs>
<clipPath id="clip0_6_273">
<rect width="108" height="126" fill="white"/>
</clipPath>
</defs>
</svg>
