<?xml version="1.0" standalone="no"?>
<!DOCTYPE svg PUBLIC "-//W3C//DTD SVG 20010904//EN"
 "http://www.w3.org/TR/2001/REC-SVG-20010904/DTD/svg10.dtd">
<svg version="1.0" xmlns="http://www.w3.org/2000/svg"
 width="211.000000pt" height="211.000000pt" viewBox="0 0 211.000000 211.000000"
 preserveAspectRatio="xMidYMid meet">
<metadata>
Created by potrace 1.14, written by Peter Selinger 2001-2017
</metadata>
<g transform="translate(0.000000,211.000000) scale(0.100000,-0.100000)"
fill="#000000" stroke="none">
<path d="M850 2091 c-101 -22 -197 -54 -263 -89 -71 -36 -49 -39 28 -3 129 61
267 93 420 96 463 9 873 -284 1013 -725 11 -36 23 -78 26 -95 13 -73 18 -104
21 -158 2 -33 7 -62 11 -65 15 -15 -7 179 -31 272 -103 398 -431 700 -837 770
-119 20 -286 19 -388 -3z"/>
<path d="M928 1995 c-161 -26 -276 -69 -396 -149 -270 -182 -423 -468 -424
-791 0 -107 6 -155 34 -255 71 -260 254 -478 500 -597 413 -201 906 -78 1180
295 114 153 187 379 179 546 -2 38 -14 5 -17 -46 -9 -168 -62 -322 -161 -471
-53 -78 -164 -190 -244 -243 -59 -39 -97 -59 -214 -109 -56 -24 -177 -46 -275
-49 -377 -14 -719 194 -878 534 -65 140 -87 243 -86 410 3 484 373 873 870
915 22 2 46 4 54 5 10 1 9 4 -5 10 -24 10 -12 11 -117 -5z"/>
<path d="M893 1794 c-172 -37 -356 -159 -454 -300 -83 -120 -139 -281 -139
-400 0 -70 16 -43 23 38 24 264 204 502 459 606 222 90 492 60 690 -76 349
-240 422 -735 159 -1066 -44 -55 -27 -61 19 -7 57 65 124 207 146 308 3 15 8
74 11 129 20 368 -241 699 -605 770 -90 17 -226 17 -309 -2z"/>
<path d="M933 1606 c-81 -19 -176 -66 -233 -115 -61 -53 -45 -63 19 -13 137
108 321 145 486 97 65 -19 163 -73 207 -113 35 -32 49 -20 17 14 -35 37 -134
94 -204 116 -81 25 -213 32 -292 14z"/>
<path d="M995 1509 c-220 -34 -380 -207 -393 -424 -15 -273 192 -491 462 -484
123 3 213 39 303 122 158 145 189 396 73 577 -71 110 -205 195 -325 207 -27 2
-54 5 -60 7 -5 1 -32 -1 -60 -5z m190 -40 c119 -37 230 -141 277 -259 32 -80
32 -222 0 -305 -43 -115 -139 -212 -252 -257 -78 -31 -232 -31 -310 0 -284
113 -370 473 -167 698 113 124 291 173 452 123z"/>
<path d="M4 970 c6 -91 23 -174 61 -287 23 -69 87 -185 105 -191 12 -4 13 -2
4 9 -39 47 -114 223 -129 298 -2 12 -6 30 -9 39 -9 30 -16 82 -21 149 -2 36
-7 68 -11 72 -4 3 -4 -37 0 -89z"/>
<path d="M660 661 c0 -16 82 -77 147 -110 130 -66 292 -76 431 -28 70 24 163
80 197 117 34 37 7 32 -44 -8 -200 -158 -479 -157 -678 4 -43 36 -53 40 -53
25z"/>
<path d="M500 541 c0 -12 114 -108 151 -127 45 -23 37 6 -9 34 -20 13 -57 41
-80 63 -43 38 -62 48 -62 30z"/>
<path d="M720 56 c14 -8 48 -20 75 -26 28 -6 61 -13 75 -16 42 -9 195 -17 189
-10 -4 4 -31 9 -60 11 -87 7 -140 15 -199 30 -30 8 -66 17 -80 20 l-25 6 25
-15z"/>
</g>
</svg>
