<svg width="136" height="111" viewBox="0 0 136 111" fill="none" xmlns="http://www.w3.org/2000/svg">
<path d="M53.4425 61.2908C53.9378 52.4551 58.2646 44.6706 64.7921 39.1523C71.1935 33.7322 79.8096 30.4194 89.2108 30.4194C98.6025 30.4194 107.219 33.7322 113.625 39.1523C120.148 44.6706 124.474 52.455 124.974 61.2814C125.47 70.3601 121.82 78.7941 115.419 85.0459C108.892 91.4052 99.6071 95.3957 89.2108 95.3957C78.8144 95.3957 69.5114 91.4052 62.9885 85.0459C56.5824 78.7941 52.9425 70.3602 53.4425 61.2908Z" fill="white"/>
<path d="M70.8592 62.0839C71.1133 57.5503 73.3334 53.556 76.6827 50.7246C79.9673 47.9435 84.3883 46.2437 89.2121 46.2437C94.0311 46.2437 98.4521 47.9435 101.739 50.7246C105.086 53.556 107.306 57.5502 107.563 62.0791C107.817 66.7375 105.944 71.065 102.66 74.2728C99.3104 77.5358 94.5465 79.5834 89.2121 79.5834C83.8776 79.5834 79.1042 77.5358 75.7573 74.2728C72.4703 71.065 70.6026 66.7375 70.8592 62.0839Z" fill="#265787"/>
<path d="M41.6336 71.2448C41.6648 73.0189 42.2306 76.4666 43.0793 79.159C44.8631 84.8579 47.8887 90.1299 52.0987 94.7763C56.419 99.5521 61.7391 103.388 67.8839 106.112C74.3428 108.972 81.3411 110.43 88.6103 110.418C95.8676 110.408 102.866 108.922 109.325 106.04C115.47 103.29 120.785 99.4371 125.098 94.6589C129.306 89.9933 132.326 84.7116 134.115 79.0128C135.014 76.1333 135.582 73.2108 135.81 70.2786C136.033 67.3896 135.94 64.4958 135.53 61.6044C134.729 55.9703 132.78 50.6838 129.778 45.8648C127.033 41.4366 123.494 37.5599 119.286 34.2969L119.296 34.2897L76.8338 1.686C76.7954 1.65723 76.7643 1.62611 76.7235 1.59974C73.9376 -0.538837 69.2529 -0.531633 66.1889 1.61174C63.0913 3.77908 62.7365 7.3633 65.4936 9.62415L65.4816 9.63615L83.192 24.0379L29.2122 24.0955H29.1402C24.6785 24.1003 20.3893 27.0276 19.5406 30.727C18.6679 34.4959 21.6984 37.6222 26.3375 37.639L26.3304 37.6558L53.6907 37.6031L4.86786 75.0784C4.80553 75.1239 4.73839 75.1719 4.68085 75.2175C0.075243 78.7442 -1.41357 84.6085 1.48741 88.3198C4.43155 92.0935 10.6914 92.1007 15.345 88.3414L41.9909 66.5337C41.9909 66.5337 41.6025 69.4778 41.6336 71.2448ZM110.104 81.1033C104.614 86.6967 96.9273 89.8687 88.6103 89.8854C80.2814 89.8998 72.595 86.7567 67.1047 81.1729C64.4219 78.4517 62.4512 75.3206 61.2356 71.9857C60.0441 68.7083 59.5814 65.2295 59.8882 61.7195C60.1783 58.2887 61.1997 55.0161 62.83 52.0552C64.4315 49.1446 66.6372 46.5146 69.3608 44.2897C74.6976 39.9406 81.4922 37.5862 88.5984 37.5766C95.7118 37.567 102.502 39.8998 107.843 44.2345C110.562 46.4498 112.765 49.0703 114.367 51.9761C116.004 54.9346 117.018 58.1952 117.32 61.6356C117.623 65.1408 117.16 68.6148 115.968 71.8946C114.75 75.2391 112.787 78.3702 110.104 81.1033Z" fill="#EA7600"/>
</svg>
