<?xml version="1.0" encoding="UTF-8"?>
<svg id="Layer_2" data-name="Layer 2" xmlns="http://www.w3.org/2000/svg" viewBox="0 0 84.97 82.92">
  <defs>
    <style>
      .cls-1 {
        fill: none;
        stroke: #010101;
        stroke-linecap: round;
        stroke-linejoin: round;
        stroke-width: 2.97px;
      }
    </style>
  </defs>
  <g id="Layer_1-2" data-name="Layer 1">
    <path class="cls-1" d="M42.48,1.49C19.85,1.47,1.5,19.81,1.49,42.44c0,17.65,11.29,33.32,28.04,38.9,2.06.38,2.8-.88,2.8-1.91v-6.96c-11.43,2.48-13.8-5.49-13.8-5.49-.76-2.52-2.4-4.68-4.63-6.08-3.72-2.53.29-2.5.29-2.5,2.63.37,4.94,1.93,6.27,4.23,3.66,6.27,9.53,4.46,11.93,3.41.19-2.08,1.12-4.03,2.61-5.49-9.11-1.03-18.68-4.54-18.68-20.24-.06-4.07,1.46-8.01,4.23-11-1.26-3.53-1.12-7.41.4-10.84,0,0,3.43-1.11,11.26,4.19,6.71-1.83,13.79-1.83,20.51,0,7.83-5.3,11.26-4.19,11.26-4.19,1.51,3.43,1.65,7.31.4,10.84,2.77,2.98,4.28,6.92,4.21,11,0,15.74-9.53,19.19-18.7,20.22,1.99,2.02,3.01,4.8,2.78,7.62v11.24c0,1.35.74,2.36,2.82,1.91,21.46-7.18,33.04-30.39,25.86-51.85C75.77,12.75,60.11,1.48,42.48,1.49"/>
  </g>
</svg>