<?xml version="1.0" encoding="UTF-8"?>
<svg id="Layer_2" data-name="Layer 2" xmlns="http://www.w3.org/2000/svg" viewBox="0 0 85.05 85.05">
  <defs>
    <style>
      .cls-1 {
        fill: none;
        fill-rule: evenodd;
        stroke: #010101;
        stroke-miterlimit: 10;
        stroke-width: 3.05px;
      }
    </style>
  </defs>
  <g id="Layer_1-2" data-name="Layer 1">
    <path class="cls-1" d="M25.62,1.77c4.37-.2,5.77-.25,16.9-.25s12.53.05,16.9.25c4.36.2,7.34.89,9.95,1.91,2.7,1.05,4.98,2.45,7.26,4.73,2.28,2.28,3.68,4.57,4.73,7.26,1.01,2.61,1.71,5.59,1.91,9.95.2,4.37.25,5.77.25,16.9s-.05,12.53-.25,16.9c-.2,4.36-.89,7.34-1.91,9.95-1.05,2.7-2.45,4.98-4.73,7.26-2.28,2.28-4.57,3.68-7.26,4.73-2.61,1.01-5.59,1.71-9.95,1.91-4.37.2-5.77.25-16.9.25s-12.53-.05-16.9-.25c-4.36-.2-7.34-.89-9.95-1.91-2.7-1.05-4.98-2.45-7.26-4.73-2.28-2.28-3.68-4.57-4.73-7.26-1.01-2.61-1.71-5.59-1.91-9.95-.2-4.37-.25-5.77-.25-16.9s.05-12.53.25-16.9c.2-4.36.89-7.34,1.91-9.95,1.05-2.7,2.45-4.98,4.73-7.26,2.28-2.28,4.57-3.68,7.26-4.73,2.61-1.01,5.59-1.71,9.95-1.91ZM21.47,42.52c0-11.63,9.43-21.05,21.05-21.05s21.05,9.43,21.05,21.05-9.43,21.05-21.05,21.05-21.05-9.43-21.05-21.05ZM64.41,25.56c2.72,0,4.92-2.2,4.92-4.92s-2.2-4.92-4.92-4.92-4.92,2.2-4.92,4.92,2.2,4.92,4.92,4.92Z"/>
  </g>
</svg>