<?xml version="1.0" encoding="UTF-8"?>
<svg id="Layer_2" data-name="Layer 2" xmlns="http://www.w3.org/2000/svg" viewBox="0 0 84.9 84.9">
  <defs>
    <style>
      .cls-1 {
        fill: none;
        stroke: #010101;
        stroke-linejoin: round;
        stroke-width: 2.9px;
      }
    </style>
  </defs>
  <g id="Layer_1-2" data-name="Layer 1">
    <path class="cls-1" d="M83.45,7.48v69.9c0,.58-.06,1.16-.22,1.71-.82,2.71-3.23,4.36-5.81,4.36H7.51c-.58,0-1.16-.06-1.71-.23-2.7-.83-4.35-3.23-4.35-5.8V7.51c0-.58.06-1.16.23-1.71C2.51,3.09,4.91,1.45,7.48,1.45h69.91c.58,0,1.16.06,1.71.23,2.7.83,4.34,3.23,4.34,5.8h0ZM26.12,33.38h-12.34v38.46h12.34v-38.46ZM26.85,20.07c0-.91-.17-1.82-.51-2.67-.34-.85-.85-1.62-1.49-2.27-.64-.65-1.4-1.17-2.25-1.52-.84-.36-1.74-.54-2.66-.55h-.12c-.84,0-1.68.11-2.47.4-2.89,1.07-4.63,3.75-4.63,6.6,0,1.86.74,3.64,2.05,4.95,1.31,1.31,3.1,2.05,4.95,2.05h0c.91.02,1.82-.14,2.68-.46.85-.33,1.63-.82,2.29-1.45s1.19-1.38,1.56-2.22c.37-.84.57-1.74.59-2.65v-.22ZM71.21,48.36c0-11.62-7.3-16.13-14.55-16.13-2.37-.12-4.74.39-6.85,1.49-2.12,1.09-3.91,2.73-5.21,4.75h-.33v-5.08h-11.61v38.46h12.34v-20.43c-.18-2.09.49-4.17,1.86-5.78,1.37-1.61,3.32-2.62,5.44-2.82h.46c3.87,0,6.75,2.4,6.75,8.45v20.58h11.61l.1-23.48Z"/>
  </g>
</svg>