<?xml version="1.0" encoding="UTF-8"?>
<svg id="Layer_2" data-name="Layer 2" xmlns="http://www.w3.org/2000/svg" viewBox="0 0 84.82 78.66">
  <defs>
    <style>
      .cls-1 {
        fill: none;
        stroke: #010101;
        stroke-linecap: round;
        stroke-linejoin: round;
        stroke-width: 2.82px;
      }
    </style>
  </defs>
  <g id="Layer_1-2" data-name="Layer 1">
    <path class="cls-1" d="M1.58,31.6l32.82,21.97c2.93,1.95,4.39,2.93,5.97,3.3,1.4.33,2.85.33,4.25,0,1.58-.38,3.04-1.35,5.97-3.3l32.82-21.97M34.62,4.59L8.23,21.2c-4.05,2.55-4.8,3.02-6.15,5.99-.1.23-.2.46-.27.7-.39,1.31-.39,2.78-.39,5.67v29.09c0,5.11,0,7.66.99,9.61.87,1.72,2.26,3.11,3.98,3.99,1.95.99,4.49.99,9.59.99h52.78c5.1,0,7.64,0,9.59-.99,1.71-.87,3.1-2.27,3.98-3.99.99-1.95.99-4.51.99-9.61v-29.09c0-2.88,0-4.35-.39-5.65-.07-.24-.17-.47-.27-.69-1.35-2.98-2.1-3.45-6.16-6.01L50.1,4.59c-4.57-2.87-5.42-3.41-9.03-3.09-.41.04-.82.11-1.21.23-1.34.41-2.73,1.29-5.24,2.87Z"/>
  </g>
</svg>