<svg fill="none" height="119" viewBox="0 0 122 119" width="122" xmlns="http://www.w3.org/2000/svg" xmlns:xlink="http://www.w3.org/1999/xlink"><clipPath id="a"><path d="m0 0h122v119h-122z"/></clipPath><g clip-path="url(#a)"><path d="m100.397 0h-78.7938c-11.93113 0-21.6032 9.67606-21.6032 21.6121v75.7758c0 11.9361 9.67207 21.6121 21.6032 21.6121h78.7938c11.931 0 21.603-9.676 21.603-21.6121v-75.7758c0-11.93604-9.672-21.6121-21.603-21.6121z" fill="#001e36"/><g fill="#31a8ff"><path d="m27.4724 83.4503v-52.3203c0-.3792.1621-.5723.4911-.5723.8701 0 1.6688 0 2.8607-.0406 1.192-.0405 2.496-.0548 3.8882-.0811l4.4198-.0834c1.5543-.0271 3.0951-.0406 4.6225-.0406 4.1464 0 7.6428.5183 10.4892 1.555 2.5589.8677 4.8928 2.2942 6.8324 4.176 1.6447 1.632 2.9153 3.602 3.7237 5.7738.7648 2.1148 1.1513 4.3478 1.1419 6.5967 0 4.3692-1.0092 7.972-3.0276 10.8084-2.0326 2.8487-4.8888 5.006-8.184 6.1817-3.4377 1.2831-7.2591 1.7172-11.4596 1.7172-1.192 0-2.0454-.012-2.5365-.0406s-1.2277-.0405-2.2099-.0405v16.3342c.0125.0848.008.1712-.0131.2542-.0211.0831-.0585.1611-.1099.2296-.0514.0686-.1159.1262-.1897.1697-.0738.0434-.1555.0718-.2404.0835-.0608.0095-.1227.0095-.1835 0h-9.7431c-.391-.0072-.5722-.2242-.5722-.6606zm11.0519-43.0668v17.0641c.7088.0556 1.3636.0826 1.9644.081h2.701c1.9874-.0068 3.9618-.3221 5.8525-.9348 1.6208-.4797 3.0697-1.4151 4.1743-2.695 1.0632-1.2545 1.5948-3.0034 1.5948-5.2468.0413-1.5841-.3724-3.1467-1.1919-4.5027-.859-1.3116-2.1009-2.3267-3.5569-2.9072-1.8979-.7375-3.9247-1.0854-5.9598-1.0232-1.3112 0-2.4705.0136-3.4781.0406-1.0077.027-1.7038.0684-2.0884.124z"/><path d="m97.5862 54.3451c-1.538-.7914-3.1765-1.3699-4.8704-1.7195-1.8658-.4289-3.7736-.6489-5.6881-.6558-1.0352-.0277-2.069.0968-3.0681.3696-.6367.1411-1.2027.5036-1.5972 1.0231-.2667.4156-.4082.8991-.4077 1.3928.0145.4788.1872.9393.4911 1.3094.4777.5596 1.062 1.0184 1.7188 1.3498 1.1662.6265 2.3682 1.184 3.5998 1.6695 2.7468.9204 5.3717 2.1713 7.8169 3.7252 1.6642 1.0526 3.0418 2.5013 4.0097 4.2165.816 1.6268 1.225 3.4272 1.192 5.2468.048 2.3998-.637 4.757-1.9643 6.7565-1.422 2.0281-3.3963 3.6051-5.6881 4.5432-2.4888 1.0939-5.5609 1.6409-9.2163 1.6409-2.3209.0215-4.6378-.1982-6.9134-.6559-1.7934-.329-3.539-.8793-5.1969-1.6384-.1794-.0921-.3287-.2335-.4305-.4075-.1018-.1741-.1518-.3736-.1441-.5751v-8.8409c-.0103-.0867.0033-.1746.0395-.2541.0361-.0794.0934-.1475.1655-.1966.0703-.0401.1511-.0578.2317-.0505.0805.0072.157.039.2189.091 1.9598 1.1559 4.0881 1.9984 6.3079 2.497 1.9551.4909 3.9609.7519 5.9765.7775 1.9071 0 3.3121-.2456 4.2148-.7369.4064-.1862.7501-.4863.9895-.8638.2395-.3776.3645-.8165.3598-1.2636 0-.7107-.4092-1.3936-1.2277-2.0486-.8185-.6551-2.4841-1.4421-4.9967-2.3611-2.5698-.8946-5.0062-2.1341-7.2424-3.6847-1.5994-1.1115-2.917-2.5815-3.8477-4.2928-.8066-1.613-1.2153-3.3957-1.192-5.1991-.007-2.1725.5889-4.3042 1.7212-6.1579 1.2866-2.0366 3.1345-3.6575 5.321-4.6672 2.3998-1.2005 5.4004-1.8007 9.0017-1.8007 2.1096-.0177 4.2172.1322 6.3031.4484 1.5099.1942 2.9859.5955 4.3864 1.1925.1112.0319.2135.0892.2987.1674.0852.0783.1511.1752.1924.2833.0555.1995.0828.4058.0811.6129v8.2709c.0066.0956-.0119.1913-.0538.2774-.0418.0862-.1054.16-.1846.2139-.1103.0541-.2317.0818-.3546.081-.1228-.0009-.2438-.0302-.3534-.0858z"/></g></g></svg>