<?xml version="1.0" encoding="UTF-8"?>
<svg id="Layer_2" data-name="Layer 2" xmlns="http://www.w3.org/2000/svg" viewBox="0 0 85 85">
  <defs>
    <style>
      .cls-1 {
        fill: none;
        stroke: #231f20;
        stroke-miterlimit: 10;
        stroke-width: 3px;
      }
    </style>
  </defs>
  <g id="Layer_1-2" data-name="Layer 1">
    <path class="cls-1" d="M27.8,67.71c-2.5-1.46-4.77-3.29-6.73-5.41"/>
    <path class="cls-1" d="M13.33,42.5c0-16.11,13.06-29.17,29.17-29.17s29.17,13.06,29.17,29.17c0,7.55-2.87,14.43-7.57,19.61"/>
    <path class="cls-1" d="M79.26,42.5c0,20.3-16.46,36.76-36.76,36.76S5.74,62.8,5.74,42.5,22.2,5.74,42.5,5.74"/>
    <path class="cls-1" d="M57.77,57.77c-8.44,8.44-22.11,8.44-30.55,0"/>
    <path class="cls-1" d="M27.23,27.23c8.44-8.44,22.11-8.44,30.55,0"/>
    <path class="cls-1" d="M8.01,64.68c-4.12-6.39-6.51-14.01-6.51-22.18"/>
    <path class="cls-1" d="M42.5,83.5c-4.82,0-9.45-.83-13.75-2.36"/>
    <path class="cls-1" d="M22.48,6.71c5.92-3.32,12.75-5.21,20.02-5.21,14.15,0,26.63,7.17,34,18.08,4.42,6.54,7,14.43,7,22.92"/>
    <circle class="cls-1" cx="42.5" cy="42.5" r="17.44"/>
  </g>
</svg>