<svg width="160" height="81" viewBox="0 0 160 81" fill="none" xmlns="http://www.w3.org/2000/svg">
<g clip-path="url(#clip0_6_249)">
<path fill-rule="evenodd" clip-rule="evenodd" d="M80 81C124.18 81 160 62.867 160 40.4935C160 18.133 124.18 0 80 0C35.8203 0 0 18.133 0 40.5065C0 62.867 35.8203 81 80 81ZM122.24 32.5067C121.628 31.8303 120.013 31.492 117.383 31.492H113.411L111.081 43.4463H113.359C114.961 43.4463 116.315 43.3032 117.448 43.017C118.438 42.7699 119.232 42.4187 119.831 41.9634C120.417 41.5211 120.911 40.8967 121.328 40.0903C121.797 39.1927 122.174 38.074 122.435 36.7342C122.682 35.4855 122.747 34.4578 122.643 33.6383C122.578 33.105 122.448 32.7278 122.24 32.5067ZM71.0417 8.9234H79.9089C81.3411 8.9234 82.513 10.0941 82.513 11.525C82.513 11.7461 82.487 11.9672 82.4349 12.1754L80.9505 19.811H85.6901C88.3854 19.811 90.6901 20.0581 92.6172 20.5394C94.7526 21.0858 96.4583 21.9313 97.7344 23.102C98.8411 24.1166 99.6224 25.3653 100.091 26.8482L101.016 22.0744C101.185 20.7996 102.279 19.811 103.594 19.811H120.781C123.646 19.811 126.172 20.2012 128.359 20.9947C130.664 21.8272 132.565 23.089 134.049 24.78C135.547 26.497 136.523 28.5263 136.966 30.8807C137.383 33.105 137.331 35.5765 136.797 38.3212C136.576 39.4268 136.276 40.5195 135.898 41.5862C135.521 42.6398 135.065 43.6414 134.531 44.591C133.984 45.5536 133.372 46.4771 132.695 47.3226C132.005 48.1811 131.237 49.0136 130.391 49.7811C129.362 50.7437 128.281 51.5632 127.148 52.2396C125.977 52.942 124.766 53.4884 123.503 53.9046C122.279 54.3078 120.872 54.607 119.31 54.8022C117.76 54.9973 116.107 55.1013 114.362 55.1013H108.854L107.135 63.7386C106.966 65.0133 105.872 66.0019 104.557 66.0019H95.625C95.4688 66.0019 95.2995 65.9889 95.1302 65.9499C93.724 65.6767 92.7995 64.3239 93.0599 62.9061L94.5964 55.0103C94.388 55.0623 94.1667 55.0883 93.9453 55.0883H84.9349C83.5026 55.0883 82.3307 53.9176 82.3307 52.4867C82.3307 52.2656 82.3568 52.0445 82.4089 51.8364L85.8984 33.8725C86.0547 33.079 86.1068 32.4676 86.0547 32.0254C86.0417 31.8953 86.1458 31.9603 86.1068 31.9083L85.7422 31.8172C85.2214 31.6872 84.4922 31.6221 83.5547 31.6221H78.6068L74.4792 52.9941C74.2448 54.2428 73.151 55.1013 71.9271 55.1013H63.0599C61.6276 55.1013 60.4557 53.9306 60.4557 52.4998C60.4557 52.2786 60.4818 52.0575 60.5339 51.8494L61.0026 49.4169L60.612 49.7811C59.5833 50.7437 58.5026 51.5632 57.3698 52.2396C56.1979 52.942 54.987 53.4884 53.724 53.9046C52.5 54.3078 51.0938 54.607 49.5313 54.8022C47.9818 54.9973 46.3281 55.1013 44.5833 55.1013H39.0625L37.3828 63.7386C37.2135 65.0133 36.1198 66.0019 34.8047 66.0019H25.8724C25.7161 66.0019 25.5469 65.9889 25.3776 65.9499C23.9714 65.6767 23.0469 64.3239 23.3073 62.9061L31.25 22.0744C31.4193 20.7996 32.513 19.811 33.8281 19.811H51.0156C53.8802 19.811 56.4062 20.2012 58.5938 20.9947C60.9115 21.8272 62.7995 23.089 64.2839 24.78C64.7266 25.2873 65.1302 25.8336 65.4948 26.406L68.4896 11.0437C68.724 9.79492 69.8177 8.9234 71.0417 8.9234ZM52.5 32.5067C51.888 31.8303 50.2734 31.492 47.6432 31.492H43.6589L41.3281 43.4463H43.6068C45.2083 43.4463 46.5625 43.3032 47.6953 43.017C48.6849 42.7699 49.4792 42.4187 50.0781 41.9634C50.6641 41.5211 51.1589 40.8967 51.5755 40.0903C52.0443 39.1927 52.4219 38.074 52.6823 36.7342C52.9297 35.4855 52.9948 34.4578 52.8906 33.6383C52.8255 33.105 52.6953 32.7278 52.5 32.5067Z" fill="#6884BA"/>
<path fill-rule="evenodd" clip-rule="evenodd" d="M117.383 28.8904C120.781 28.8904 123.047 29.5148 124.167 30.7635C125.299 32.0123 125.56 34.1586 124.974 37.2154C124.362 40.3894 123.164 42.6527 121.406 44.0056C119.648 45.3584 116.953 46.0348 113.359 46.0348H107.93L111.263 28.8774H117.383V28.8904ZM71.0417 11.5249H79.9089L77.7865 22.4255H85.6901C90.6641 22.4255 94.0885 23.297 95.9766 25.0271C97.8646 26.7571 98.4245 29.5668 97.6693 33.4432L93.9583 52.5127H84.9479L88.4766 34.3797C88.8802 32.3115 88.724 30.9066 88.0339 30.1652C87.3307 29.4107 85.8594 29.0335 83.5807 29.0335H76.4974L71.9271 52.5127H63.0599L71.0417 11.5249ZM47.6432 28.8904C51.0417 28.8904 53.3073 29.5148 54.4271 30.7635C55.5599 32.0123 55.8333 34.1586 55.2344 37.2154C54.6224 40.3894 53.4245 42.6527 51.6667 44.0056C49.9089 45.3584 47.2136 46.0348 43.6198 46.0348H38.1901L41.5234 28.8774H47.6432V28.8904ZM25.8724 63.4003H34.8047L36.9271 52.4997H44.5833C47.9557 52.4997 50.7422 52.1485 52.9167 51.433C55.1042 50.7306 57.0833 49.5339 58.8672 47.8689C60.3646 46.4901 61.5755 44.9811 62.5 43.3161C63.4245 41.6641 64.0886 39.83 64.4792 37.8268C65.4297 32.9749 64.7136 29.1896 62.3438 26.4709C59.974 23.7653 56.1979 22.3995 51.0287 22.3995H33.8412L25.8724 63.4003ZM95.612 63.4003H104.544L106.667 52.4997H114.323C117.695 52.4997 120.482 52.1485 122.656 51.433C124.844 50.7306 126.823 49.5339 128.607 47.8689C130.104 46.4901 131.315 44.9811 132.24 43.3161C133.164 41.6641 133.828 39.83 134.219 37.8268C135.169 32.9749 134.453 29.1896 132.083 26.4709C129.714 23.7653 125.938 22.3995 120.768 22.3995H103.581L95.612 63.4003Z" fill="black"/>
</g>
<defs>
<clipPath id="clip0_6_249">
<rect width="160" height="81" fill="white"/>
</clipPath>
</defs>
</svg>
