<svg width="107" height="120" viewBox="0 0 107 120" fill="none" xmlns="http://www.w3.org/2000/svg">
<g clip-path="url(#clip0_6_221)">
<path fill-rule="evenodd" clip-rule="evenodd" d="M96.968 108.332L53.4998 120L10.0309 108.332L0 0H107L96.968 108.332Z" fill="#2062AF"/>
<path fill-rule="evenodd" clip-rule="evenodd" d="M53.4991 8.77441V110.694L53.5977 110.72L88.7744 101.278L96.8943 8.77441H53.4991Z" fill="#3C9CD7"/>
<path fill-rule="evenodd" clip-rule="evenodd" d="M53.4608 35.8624L22.3489 48.7792L23.3806 61.5679L53.4608 48.7468L85.4579 35.1089L86.7846 22.0269L53.4608 35.8624Z" fill="white"/>
<mask id="mask0_6_221" style="mask-type:luminance" maskUnits="userSpaceOnUse" x="22" y="35" width="32" height="27">
<path fill-rule="evenodd" clip-rule="evenodd" d="M22.2947 35.8081H53.515V61.6216H22.2947V35.8081Z" fill="url(#paint0_linear_6_221)"/>
</mask>
<g mask="url(#mask0_6_221)">
<path fill-rule="evenodd" clip-rule="evenodd" d="M22.3489 48.7791L23.3806 61.5678L53.4604 48.7467V35.8623L22.3489 48.7791Z" fill="url(#paint1_linear_6_221)"/>
</g>
<mask id="mask1_6_221" style="mask-type:luminance" maskUnits="userSpaceOnUse" x="53" y="21" width="34" height="28">
<path fill-rule="evenodd" clip-rule="evenodd" d="M53.4066 21.9731H86.8388V48.8007H53.4066V21.9731Z" fill="url(#paint2_linear_6_221)"/>
</mask>
<g mask="url(#mask1_6_221)">
<path fill-rule="evenodd" clip-rule="evenodd" d="M86.7846 22.0273L53.4608 35.8625V48.7469L85.4579 35.109L86.7846 22.0273Z" fill="url(#paint3_linear_6_221)"/>
</g>
<path fill-rule="evenodd" clip-rule="evenodd" d="M22.3965 48.7788L23.4286 61.5675L69.5825 61.714L68.55 78.7654L53.3629 83.0278L38.7634 79.3529L37.8787 68.7693H24.3134L26.0829 89.2014L53.5103 97.286L80.7889 89.348L84.3279 48.7788H22.3965Z" fill="url(#paint4_linear_6_221)"/>
<path fill-rule="evenodd" clip-rule="evenodd" d="M53.4608 48.7788H22.3492L23.381 61.5675L53.4608 61.6632V48.7788ZM53.4608 82.9868L53.3135 83.0278L38.7161 79.3529L37.8314 68.7693H24.2665L26.0356 89.2014L53.4608 97.286V82.9868Z" fill="black" fill-opacity="0.05098"/>
<path fill-rule="evenodd" clip-rule="evenodd" d="M19.5473 22.0269H86.7846L85.4579 35.1089H21.1691L19.5473 22.0269Z" fill="url(#paint5_linear_6_221)"/>
<path fill-rule="evenodd" clip-rule="evenodd" d="M53.4608 22.0269H19.5473L21.1691 35.1089H53.4608V22.0269Z" fill="black" fill-opacity="0.05098"/>
</g>
<defs>
<linearGradient id="paint0_linear_6_221" x1="37.9047" y1="35.8621" x2="37.9047" y2="61.5676" gradientUnits="userSpaceOnUse">
<stop stop-color="white" stop-opacity="0"/>
<stop offset="0.388" stop-color="white"/>
<stop offset="1" stop-color="white" stop-opacity="0.831"/>
</linearGradient>
<linearGradient id="paint1_linear_6_221" x1="37.9047" y1="35.8623" x2="37.9047" y2="61.5678" gradientUnits="userSpaceOnUse">
<stop stop-color="#D1D3D4"/>
<stop offset="0.388" stop-color="#D1D3D4"/>
<stop offset="1" stop-color="#D1D3D4"/>
</linearGradient>
<linearGradient id="paint2_linear_6_221" x1="70.1227" y1="22.0271" x2="70.1227" y2="48.7467" gradientUnits="userSpaceOnUse">
<stop stop-color="white" stop-opacity="0"/>
<stop offset="0.388" stop-color="white"/>
<stop offset="1" stop-color="white" stop-opacity="0.831"/>
</linearGradient>
<linearGradient id="paint3_linear_6_221" x1="70.1227" y1="22.0273" x2="70.1227" y2="48.7469" gradientUnits="userSpaceOnUse">
<stop stop-color="#D1D3D4"/>
<stop offset="0.388" stop-color="#D1D3D4"/>
<stop offset="1" stop-color="#D1D3D4"/>
</linearGradient>
<linearGradient id="paint4_linear_6_221" x1="22.3967" y1="73.0324" x2="84.3279" y2="73.0324" gradientUnits="userSpaceOnUse">
<stop stop-color="#E8E7E5"/>
<stop offset="1" stop-color="white"/>
</linearGradient>
<linearGradient id="paint5_linear_6_221" x1="19.5472" y1="28.5679" x2="86.7846" y2="28.5679" gradientUnits="userSpaceOnUse">
<stop stop-color="#E8E7E5"/>
<stop offset="1" stop-color="white"/>
</linearGradient>
<clipPath id="clip0_6_221">
<rect width="107" height="120" fill="white"/>
</clipPath>
</defs>
</svg>
