<svg width="108" height="123" viewBox="0 0 108 123" fill="none" xmlns="http://www.w3.org/2000/svg">
<g clip-path="url(#clip0_6_239)">
<path fill-rule="evenodd" clip-rule="evenodd" d="M108 0L98.1619 110.688L53.9352 123L9.82815 110.708L0 0H108Z" fill="#E44D26"/>
<path fill-rule="evenodd" clip-rule="evenodd" d="M53.995 113.591L89.7392 103.641L98.1419 9.04883H53.995V113.591Z" fill="#F16529"/>
<path fill-rule="evenodd" clip-rule="evenodd" d="M34.877 36.2056H54.005V22.6323H20.0949L20.4138 26.2759L23.7331 63.6924H53.9851V50.1091H36.113L34.877 36.2056ZM37.9171 70.479H24.3511L26.2449 91.7998L53.9452 99.5173L54.005 99.4973V85.3735L53.9452 85.3936L38.884 81.3096L37.9171 70.479Z" fill="#EBEBEB"/>
<path fill-rule="evenodd" clip-rule="evenodd" d="M53.9551 63.6921H70.6012L69.0363 81.2993L53.9551 85.3833V99.5071L81.6753 91.7896L81.8747 89.4973L85.0544 53.7524L85.3833 50.1089H53.9551V63.6921ZM53.9551 36.1753V36.2053H86.6093L86.8784 33.1523L87.4964 26.2656L87.8154 22.6221H53.9551V36.1753Z" fill="white"/>
</g>
<defs>
<clipPath id="clip0_6_239">
<rect width="108" height="123" fill="white"/>
</clipPath>
</defs>
</svg>
