<svg width="122" height="111" viewBox="0 0 122 111" fill="none" xmlns="http://www.w3.org/2000/svg">
<g clip-path="url(#clip0_6_182)">
<path d="M100.396 0H21.6043C9.67259 0 0 9.02619 0 20.1606V90.8394C0 101.974 9.67259 111 21.6043 111H100.396C112.327 111 122 101.974 122 90.8394V20.1606C122 9.02619 112.327 0 100.396 0Z" fill="#330000"/>
<path d="M59.1191 66.6141H40.2126L36.3674 77.764C36.3166 77.9683 36.1902 78.1493 36.0104 78.2751C35.8306 78.4009 35.609 78.4635 35.3846 78.4518H25.8098C25.2627 78.4518 25.0719 78.1713 25.2373 77.6104L41.6057 33.6119C41.7647 33.1534 41.9285 32.634 42.0971 32.0538C42.3096 31.0342 42.419 29.9983 42.4239 28.9597C42.4141 28.8982 42.4175 28.8356 42.4339 28.7754C42.4502 28.7152 42.4792 28.6586 42.5191 28.6089C42.559 28.5593 42.6091 28.5175 42.6665 28.486C42.7238 28.4545 42.7873 28.4339 42.8533 28.4254C42.9007 28.4187 42.9489 28.4187 42.9964 28.4254H56.0086C56.3903 28.4254 56.6073 28.5523 56.6646 28.8061L75.2419 77.6861C75.4065 78.1936 75.2419 78.4496 74.7505 78.4496H64.1117C63.9291 78.4685 63.7453 78.4247 63.5947 78.3264C63.4441 78.2281 63.337 78.082 63.2935 77.9153L59.1191 66.6141ZM43.161 56.9846H56.0897C55.7637 55.9651 55.382 54.8195 54.9447 53.5477C54.5074 52.2759 54.0438 50.9136 53.554 49.4608L52.0799 45.1091C51.5885 43.6577 51.1385 42.2569 50.7298 40.9064C50.3211 39.556 49.9497 38.3243 49.6158 37.2113H49.5347C49.0737 39.2734 48.4996 41.3121 47.8148 43.3194C47.0515 45.6121 46.2739 47.9546 45.4819 50.3468C44.69 52.7389 43.9163 54.9515 43.161 56.9846Z" fill="#FF9A00"/>
<path d="M86.2885 36.5236C85.4538 36.5546 84.6215 36.421 83.8458 36.1314C83.0702 35.8418 82.3688 35.4028 81.7873 34.843C81.2075 34.2588 80.7572 33.5734 80.4625 32.8261C80.1677 32.0789 80.0343 31.2846 80.0699 30.489C80.0415 29.7029 80.1908 28.9201 80.5081 28.1914C80.8254 27.4627 81.3035 26.8045 81.9114 26.2597C82.5134 25.7205 83.2238 25.2977 84.0016 25.0158C84.7795 24.7338 85.6094 24.5983 86.4436 24.6169C88.4076 24.6169 89.9485 25.1645 91.0665 26.2597C92.2006 27.4079 92.801 28.9286 92.7362 30.489C92.7706 31.2878 92.6325 32.085 92.3301 32.8329C92.0277 33.5809 91.5671 34.2645 90.9758 34.843C90.3605 35.409 89.6266 35.8505 88.8201 36.1396C88.0135 36.4288 87.1517 36.5595 86.2885 36.5236ZM80.6424 77.6862V41.1803C80.6424 40.7218 80.8594 40.4925 81.296 40.4925H91.3599C91.794 40.4925 92.0134 40.7151 92.0134 41.1803V77.6862C92.0134 78.1937 91.7964 78.4497 91.3599 78.4497H81.3795C80.8881 78.4519 80.6424 78.1959 80.6424 77.6862Z" fill="#FF9A00"/>
</g>
<defs>
<clipPath id="clip0_6_182">
<rect width="122" height="111" fill="white"/>
</clipPath>
</defs>
</svg>
