<svg width="113" height="113" viewBox="0 0 113 113" fill="none" xmlns="http://www.w3.org/2000/svg">
<g clip-path="url(#clip0_6_245)">
<path fill-rule="evenodd" clip-rule="evenodd" d="M0 0H113V113H0V0Z" fill="#F7DF1E"/>
<path fill-rule="evenodd" clip-rule="evenodd" d="M29.7122 94.4335L38.3564 89.201C40.0208 92.1621 41.5382 94.6634 45.1798 94.6634C48.665 94.6634 50.8721 93.3024 50.8721 87.9871V51.8746H61.4934V88.1343C61.4934 99.1326 55.047 104.135 45.6396 104.135C37.1425 104.135 32.2135 99.7396 29.7122 94.4335ZM67.2593 93.2932L75.9035 88.2906C78.1841 92.0058 81.136 94.737 86.3685 94.737C90.7642 94.737 93.5781 92.5391 93.5781 89.5045C93.5781 85.8629 90.6998 84.5754 85.8443 82.4512L83.1867 81.3109C75.5265 78.0463 70.4411 73.9541 70.4411 65.3099C70.4411 57.3462 76.5104 51.2769 85.9915 51.2769C92.7413 51.2769 97.5968 53.631 101.082 59.7739L92.8149 65.08C90.9941 61.8154 89.0261 60.528 85.9915 60.528C82.8832 60.528 80.9061 62.4959 80.9061 65.08C80.9061 68.2618 82.874 69.5584 87.426 71.5264L90.0837 72.6667C99.1141 76.5382 104.19 80.4832 104.19 89.3573C104.19 98.9119 96.6772 104.144 86.5892 104.144C76.7403 104.144 70.3675 99.4361 67.2593 93.2932Z" fill="black"/>
</g>
<defs>
<clipPath id="clip0_6_245">
<rect width="113" height="113" fill="white"/>
</clipPath>
</defs>
</svg>
